<svg width="32" height="32" viewBox="0 0 32 32" fill="none" xmlns="http://www.w3.org/2000/svg">
  <g id="b36fc4f5">
    <path id="9add0c37" d="M16 3C8.83187 3 3 8.83187 3 16C3 23.1681 8.83187 29 16 29C23.1681 29 29 23.1681 29 16C29 8.83187 23.1681 3 16 3ZM16 22.9944C15.7528 22.9944 15.5111 22.9211 15.3055 22.7837C15.1 22.6464 14.9398 22.4511 14.8452 22.2227C14.7505 21.9943 14.7258 21.743 14.774 21.5005C14.8222 21.258 14.9413 21.0353 15.1161 20.8605C15.2909 20.6857 15.5137 20.5666 15.7561 20.5184C15.9986 20.4702 16.2499 20.4949 16.4784 20.5895C16.7068 20.6841 16.902 20.8444 17.0393 21.0499C17.1767 21.2555 17.25 21.4971 17.25 21.7444C17.25 22.0759 17.1183 22.3938 16.8839 22.6283C16.6495 22.8627 16.3315 22.9944 16 22.9944ZM17.3575 10.4225L16.9988 18.0475C16.9988 18.3127 16.8934 18.5671 16.7059 18.7546C16.5183 18.9421 16.264 19.0475 15.9987 19.0475C15.7335 19.0475 15.4792 18.9421 15.2916 18.7546C15.1041 18.5671 14.9987 18.3127 14.9987 18.0475L14.64 10.4263V10.4231C14.6321 10.24 14.6614 10.0571 14.7261 9.88553C14.7908 9.71398 14.8895 9.55729 15.0163 9.4249C15.1432 9.29251 15.2955 9.18716 15.4641 9.11518C15.6327 9.04321 15.8142 9.00611 15.9975 9.00611C16.1808 9.00611 16.3623 9.04321 16.5309 9.11518C16.6995 9.18716 16.8518 9.29251 16.9787 9.4249C17.1055 9.55729 17.2042 9.71398 17.2689 9.88553C17.3336 10.0571 17.3629 10.24 17.355 10.4231L17.3575 10.4225Z" fill="#fff"></path>
  </g>
</svg>