<svg width="32" height="32" viewBox="0 0 32 32" fill="none" xmlns="http://www.w3.org/2000/svg">
  <g id="0faed6ab">
    <path id="635a9590" d="M27.25 5H4.75C4.02091 5.00083 3.32192 5.29082 2.80637 5.80637C2.29082 6.32192 2.00083 7.02091 2 7.75V24.25C2.00083 24.9791 2.29082 25.6781 2.80637 26.1936C3.32192 26.7092 4.02091 26.9992 4.75 27H27.25C27.9791 26.9992 28.6781 26.7092 29.1936 26.1936C29.7092 25.6781 29.9992 24.9791 30 24.25V7.75C29.9992 7.02091 29.7092 6.32192 29.1936 5.80637C28.6781 5.29082 27.9791 5.00083 27.25 5ZM7 24.25C7 24.4489 6.92098 24.6397 6.78033 24.7803C6.63968 24.921 6.44891 25 6.25 25H4.75C4.55109 25 4.36032 24.921 4.21967 24.7803C4.07902 24.6397 4 24.4489 4 24.25V22.75C4 22.5511 4.07902 22.3603 4.21967 22.2197C4.36032 22.079 4.55109 22 4.75 22H6.25C6.44891 22 6.63968 22.079 6.78033 22.2197C6.92098 22.3603 7 22.5511 7 22.75V24.25ZM7 19.25C7 19.4489 6.92098 19.6397 6.78033 19.7803C6.63968 19.921 6.44891 20 6.25 20H4.75C4.55109 20 4.36032 19.921 4.21967 19.7803C4.07902 19.6397 4 19.4489 4 19.25V17.75C4 17.5511 4.07902 17.3603 4.21967 17.2197C4.36032 17.079 4.55109 17 4.75 17H6.25C6.44891 17 6.63968 17.079 6.78033 17.2197C6.92098 17.3603 7 17.5511 7 17.75V19.25ZM7 14.25C7 14.4489 6.92098 14.6397 6.78033 14.7803C6.63968 14.921 6.44891 15 6.25 15H4.75C4.55109 15 4.36032 14.921 4.21967 14.7803C4.07902 14.6397 4 14.4489 4 14.25V12.75C4 12.5511 4.07902 12.3603 4.21967 12.2197C4.36032 12.079 4.55109 12 4.75 12H6.25C6.44891 12 6.63968 12.079 6.78033 12.2197C6.92098 12.3603 7 12.5511 7 12.75V14.25ZM7 9.25C7 9.44891 6.92098 9.63968 6.78033 9.78033C6.63968 9.92098 6.44891 10 6.25 10H4.75C4.55109 10 4.36032 9.92098 4.21967 9.78033C4.07902 9.63968 4 9.44891 4 9.25V7.75C4 7.55109 4.07902 7.36032 4.21967 7.21967C4.36032 7.07902 4.55109 7 4.75 7H6.25C6.44891 7 6.63968 7.07902 6.78033 7.21967C6.92098 7.36032 7 7.55109 7 7.75V9.25ZM22.105 17H9.895C9.62978 17 9.37543 16.8946 9.18789 16.7071C9.00036 16.5196 8.895 16.2652 8.895 16C8.895 15.7348 9.00036 15.4804 9.18789 15.2929C9.37543 15.1054 9.62978 15 9.895 15H22.105C22.3702 15 22.6246 15.1054 22.8121 15.2929C22.9996 15.4804 23.105 15.7348 23.105 16C23.105 16.2652 22.9996 16.5196 22.8121 16.7071C22.6246 16.8946 22.3702 17 22.105 17ZM28 24.25C28 24.4489 27.921 24.6397 27.7803 24.7803C27.6397 24.921 27.4489 25 27.25 25H25.75C25.5511 25 25.3603 24.921 25.2197 24.7803C25.079 24.6397 25 24.4489 25 24.25V22.75C25 22.5511 25.079 22.3603 25.2197 22.2197C25.3603 22.079 25.5511 22 25.75 22H27.25C27.4489 22 27.6397 22.079 27.7803 22.2197C27.921 22.3603 28 22.5511 28 22.75V24.25ZM28 19.25C28 19.4489 27.921 19.6397 27.7803 19.7803C27.6397 19.921 27.4489 20 27.25 20H25.75C25.5511 20 25.3603 19.921 25.2197 19.7803C25.079 19.6397 25 19.4489 25 19.25V17.75C25 17.5511 25.079 17.3603 25.2197 17.2197C25.3603 17.079 25.5511 17 25.75 17H27.25C27.4489 17 27.6397 17.079 27.7803 17.2197C27.921 17.3603 28 17.5511 28 17.75V19.25ZM28 14.25C28 14.4489 27.921 14.6397 27.7803 14.7803C27.6397 14.921 27.4489 15 27.25 15H25.75C25.5511 15 25.3603 14.921 25.2197 14.7803C25.079 14.6397 25 14.4489 25 14.25V12.75C25 12.5511 25.079 12.3603 25.2197 12.2197C25.3603 12.079 25.5511 12 25.75 12H27.25C27.4489 12 27.6397 12.079 27.7803 12.2197C27.921 12.3603 28 12.5511 28 12.75V14.25ZM28 9.25C28 9.44891 27.921 9.63968 27.7803 9.78033C27.6397 9.92098 27.4489 10 27.25 10H25.75C25.5511 10 25.3603 9.92098 25.2197 9.78033C25.079 9.63968 25 9.44891 25 9.25V7.75C25 7.55109 25.079 7.36032 25.2197 7.21967C25.3603 7.07902 25.5511 7 25.75 7H27.25C27.4489 7 27.6397 7.07902 27.7803 7.21967C27.921 7.36032 28 7.55109 28 7.75V9.25Z" fill="#fff"></path>
  </g>
</svg>