<svg width="32" height="32" viewBox="0 0 32 32" fill="none" xmlns="http://www.w3.org/2000/svg">
  <g id="248e5872">
    <path id="376b7914" d="M20.79 4.03625C19.5737 2.72313 17.875 2 16 2C14.115 2 12.4106 2.71875 11.2 4.02375C9.97624 5.34312 9.37999 7.13625 9.51999 9.0725C9.79749 12.8925 12.7044 16 16 16C19.2956 16 22.1975 12.8931 22.4794 9.07375C22.6212 7.155 22.0212 5.36563 20.79 4.03625ZM27 30H4.99999C4.71203 30.0037 4.42686 29.9433 4.16522 29.8229C3.90358 29.7026 3.67206 29.5254 3.48749 29.3044C3.08124 28.8188 2.91749 28.1556 3.03874 27.485C3.56624 24.5588 5.21249 22.1006 7.79999 20.375C10.0987 18.8431 13.0106 18 16 18C18.9894 18 21.9012 18.8438 24.2 20.375C26.7875 22.1 28.4337 24.5581 28.9612 27.4844C29.0825 28.155 28.9187 28.8181 28.5125 29.3037C28.328 29.5249 28.0965 29.7022 27.8348 29.8226C27.5732 29.9431 27.288 30.0037 27 30Z" fill="#fff"></path>
  </g>
</svg>